:version 1.10
:name ASF
:units
  mass 1
  length 1
  angle deg
:documentation
  ASF file generated by Kaydara
:root
  axis xyz
  order  tx ty tz rx ry rz
  position 0 0 0
  orientation 0 0 0
:bonedata
  begin
    id 1
    name SpineDummy
    direction 0.999998 -0.00179978 1.38929e-006
    length 3.60008
    axis 0 0 0 xyz
  end
  begin
    id 2
    name Spine
    direction 0.964365 0.262802 0.0305839
    length 8.13928
    axis 1.33928 -1.75354 15.2838 xyz
    dof rx ry rz
  end
  begin
    id 3
    name Spine1
    direction 0.811168 0.572065 0.12144
    length 7.14954
    axis 2.2224 -6.9761 35.2157 xyz
    dof rx ry rz
  end
  begin
    id 4
    name Neck
    direction 0 0 0
    length 0
    axis 2.2224 -6.9761 35.2157 xyz
    dof rx ry rz
  end
  begin
    id 5
    name HeadDummy
    direction 0.810939 0.572387 0.121455
    length 3.55534
    axis 2.2224 -6.9761 35.2157 xyz
  end
  begin
    id 6
    name Head
    direction 0.998226 -0.000232542 0.0595419
    length 7.35666
    axis -3.03688 -3.41352 -0.0133467 xyz
    dof rx ry rz
  end
  begin
    id 7
    name R_ClavicleDummy
    direction 0.531669 -0.194489 -0.824319
    length 2.49392
    axis 2.2224 -6.9761 35.2157 xyz
  end
  begin
    id 8
    name R_Clavicle
    direction -0.155119 0.0480802 -0.986725
    length 4.485
    axis -54.2764 80.6538 162.779 xyz
    dof rx ry rz
  end
  begin
    id 9
    name R_UpperArm
    direction -0.955567 0.200068 -0.216484
    length 10.1122
    axis -72.9943 12.5026 168.175 xyz
    dof rx ry rz
  end
  begin
    id 10
    name R_Forearm
    direction -0.61433 0.385743 0.688332
    length 9.39148
    axis -117.015 -43.4982 147.875 xyz
    dof rx ry rz
  end
  begin
    id 11
    name R_Hand
    direction -0.699429 0.0170333 0.714499
    length 3.66324
    axis -45.0303 -36.7097 175.478 xyz
    dof rx ry rz
  end
  begin
    id 12
    name L_ClavicleDummy
    direction 0.40287 -0.36502 0.839319
    length 2.49392
    axis 2.2224 -6.9761 35.2157 xyz
  end
  begin
    id 13
    name L_Clavicle
    direction -0.231271 -0.0726419 0.970174
    length 4.485
    axis 18.4357 -75.9711 -162.563 xyz
    dof rx ry rz
  end
  begin
    id 14
    name L_UpperArm
    direction -0.917494 0.144359 0.370629
    length 10.1122
    axis 56.0417 -21.7544 171.058 xyz
    dof rx ry rz
  end
  begin
    id 15
    name L_Forearm
    direction -0.496786 0.615074 -0.612281
    length 9.39148
    axis 89.8094 37.7546 128.927 xyz
    dof rx ry rz
  end
  begin
    id 16
    name L_Hand
    direction -0.409932 0.64962 -0.640274
    length 3.66324
    axis -0.424369 32.133 128.52 xyz
    dof rx ry rz
  end
  begin
    id 17
    name L_ThighDummy
    direction -1.84081e-006 1.87549e-006 1
    length 3.13049
    axis 0 0 0 xyz
  end
  begin
    id 18
    name L_Thigh
    direction -0.947739 0.307978 0.083308
    length 17.9961
    axis 173.219 -4.77873 161.998 xyz
    dof rx ry rz
  end
  begin
    id 19
    name L_Calf
    direction -0.728814 -0.684427 0.0197583
    length 13.3367
    axis 167.331 -1.13214 -136.799 xyz
    dof rx ry rz
  end
  begin
    id 20
    name L_Foot
    direction -0.9028 0.418719 0.0981191
    length 5.8674
    axis 163.436 11.5135 -155.37 xyz
    dof rx ry rz
  end
  begin
    id 21
    name L_Toe0
    direction -0.35341 0.886259 0.299411
    length 4.75286
    axis 169.316 -17.4222 111.74 xyz
    dof rx ry rz
  end
  begin
    id 22
    name R_ThighDummy
    direction 9.32778e-007 -8.82053e-007 -1
    length 3.13049
    axis 0 0 0 xyz
  end
  begin
    id 23
    name R_Thigh
    direction -0.925064 0.37528 -0.0585023
    length 17.9961
    axis -178.698 3.35385 157.919 xyz
    dof rx ry rz
  end
  begin
    id 24
    name R_Calf
    direction -0.68969 -0.718776 -0.0876886
    length 13.3367
    axis -160.504 5.03065 -133.817 xyz
    dof rx ry rz
  end
  begin
    id 25
    name R_Foot
    direction -0.857405 0.418858 -0.299022
    length 5.8674
    axis -161.328 4.38911 -154.413 xyz
    dof rx ry rz
  end
  begin
    id 26
    name R_Toe0
    direction -0.100745 0.952789 -0.286433
    length 4.75286
    axis 171.683 16.6445 96.0359 xyz
    dof rx ry rz
  end
:hierarchy
  begin
    root SpineDummy L_ThighDummy R_ThighDummy
    SpineDummy Spine
    Spine Spine1
    Spine1 Neck
    Neck HeadDummy R_ClavicleDummy L_ClavicleDummy
    HeadDummy Head
    R_ClavicleDummy R_Clavicle
    R_Clavicle R_UpperArm
    R_UpperArm R_Forearm
    R_Forearm R_Hand
    L_ClavicleDummy L_Clavicle
    L_Clavicle L_UpperArm
    L_UpperArm L_Forearm
    L_Forearm L_Hand
    L_ThighDummy L_Thigh
    L_Thigh L_Calf
    L_Calf L_Foot
    L_Foot L_Toe0
    R_ThighDummy R_Thigh
    R_Thigh R_Calf
    R_Calf R_Foot
    R_Foot R_Toe0
  end

:SAMPLES-PER-SECOND 30
:FULLY-SPECIFIED
:DEGREES
128
root  15.9954 33.2934 17.9776 -118.545 -0.432207 92.3452
Spine  -0.483852 6.41553 -15.5573
Spine1  -0.0974856 1.60524 -5.54558
Neck  3.97569e-016 0 -2.38542e-015
Head  -3.006 -5.26127 42.5102
R_Clavicle  0.459902 -17.7694 3.05556
R_UpperArm  -1.84581 -12.6891 50.0371
R_Forearm  6.6787 10.3719 -8.77547
R_Hand  0.908203 5.66407 -1.23172
L_Clavicle  -0.45119 14.7012 3.10562
L_UpperArm  -3.28217 23.2451 44.497
L_Forearm  8.53608 2.12408 2.44416
L_Hand  0.373937 5.6715 3.97073
L_Thigh  3.65944 5.73481 3.76819
L_Calf  0.372573 1.11306 -8.60604
L_Foot  1.40783 5.36859 0.35224
L_Toe0  0.505156 0.0318049 -6.13612
R_Thigh  6.80735 -1.07021 -22.7049
R_Calf  -7.95126 8.0173 26.0662
R_Foot  1.94042 2.89614 -13.1276
R_Toe0  1.46071 -0.203205 13.5094
129
root  16.8072 33.9874 17.2043 -124.755 -1.31051 92.405
Spine  0.0132356 5.55613 -15.7279
Spine1  0.226551 1.74819 -4.43656
Neck  3.97569e-016 0 -2.38542e-015
Head  -1.59285 -5.97371 46.2705
R_Clavicle  0.422834 -17.9017 2.15621
R_UpperArm  -1.79728 -14.745 52.1798
R_Forearm  6.04149 10.9114 -9.24425
R_Hand  0.820188 7.10044 -3.91634
L_Clavicle  -0.437945 13.4154 2.61496
L_UpperArm  -1.39402 25.4252 41.0839
L_Forearm  11.0328 2.50975 2.89218
L_Hand  0.430616 5.5616 4.59982
L_Thigh  0.315474 3.47271 3.61204
L_Calf  3.79839 -0.0379395 -0.150885
L_Foot  1.26652 5.22641 -0.0758861
L_Toe0  0.505156 0.0310075 -6.13613
R_Thigh  8.01542 -2.2488 -23.4023
R_Calf  -6.18206 8.38541 27.2997
R_Foot  2.39677 2.46753 -19.0821
R_Toe0  2.70003 -0.906189 10.4832
130
root  17.6271 34.3752 16.4715 -130.621 -2.37025 93.1412
Spine  0.128821 5.14325 -15.3463
Spine1  0.21163 1.31931 -2.85067
Neck  3.97569e-016 0 -2.38542e-015
Head  0.238383 -5.6939 47.473
R_Clavicle  0.405053 -17.7867 1.72474
R_UpperArm  -1.23527 -15.8705 52.5536
R_Forearm  7.73076 10.6456 -9.01102
R_Hand  0.645512 7.93179 -6.17337
L_Clavicle  -0.433806 12.4202 2.65415
L_UpperArm  1.02264 25.0407 37.8276
L_Forearm  13.4367 2.11413 2.43466
L_Hand  0.424329 4.9295 4.78208
L_Thigh  -3.08401 2.5683 3.24713
L_Calf  5.11028 -1.42948 10.0945
L_Foot  0.918791 3.56261 0.157875
L_Toe0  0.505156 0.030418 -6.13613
R_Thigh  9.00157 -2.62596 -25.1721
R_Calf  -3.5232 8.93763 29.2396
R_Foot  2.1425 1.53632 -17.5177
R_Toe0  3.21447 -1.06604 0.0207459
131
root  18.4108 34.39 15.804 -135.925 -2.22899 94.0231
Spine  -0.211649 5.46506 -15.2807
Spine1  -0.223552 0.886247 -2.12128
Neck  3.97569e-016 0 -2.38542e-015
Head  2.45498 -5.76655 47.8911
R_Clavicle  0.412277 -17.3361 1.92325
R_UpperArm  -0.696056 -16.4247 51.6882
R_Forearm  8.79169 10.0731 -8.51215
R_Hand  0.605045 7.68984 -6.26738
L_Clavicle  -0.441515 12.41 2.88948
L_UpperArm  3.70512 22.5814 36.1337
L_Forearm  15.9689 0.916347 1.04953
L_Hand  0.493616 4.67991 5.66569
L_Thigh  -5.66556 2.76035 4.27715
L_Calf  4.36902 -2.78283 20.7297
L_Foot  0.167543 1.6934 -1.16048
L_Toe0  0.505156 0.0300195 -6.13614
R_Thigh  9.67533 -1.81632 -26.4993
R_Calf  -4.06704 9.77691 32.3334
R_Foot  1.87735 1.45398 -14.833
R_Toe0  1.62444 -0.468807 -2.05058
132
root  19.134 33.997 15.232 -141.809 -1.07207 93.9636
Spine  -0.273667 5.60411 -16.0546
Spine1  -0.367076 0.62616 -2.21464
Neck  3.97569e-016 0 -2.38542e-015
Head  5.35086 -6.74667 48.3696
R_Clavicle  0.422623 -17.0679 2.15104
R_UpperArm  -0.557227 -16.0198 50.9328
R_Forearm  8.10428 10.1866 -8.60914
R_Hand  0.757908 6.85458 -4.13225
L_Clavicle  -0.442266 13.0029 2.85659
L_UpperArm  6.08819 19.4524 35.9297
L_Forearm  18.1879 -0.669299 -0.782379
L_Hand  0.647382 4.70679 7.34754
L_Thigh  -8.68331 3.84397 6.90214
L_Calf  1.66676 -4.35723 30.6363
L_Foot  -0.174697 1.93919 -3.00087
L_Toe0  0.505156 0.0297953 -6.13614
R_Thigh  9.49928 -0.715036 -26.2641
R_Calf  -5.53472 10.3136 34.3852
R_Foot  1.67889 1.81421 -12.1107
R_Toe0  0.107381 0.0451773 3.03178
133
root  19.8074 33.2469 14.6372 -148.616 -0.7864 93.9586
Spine  0.12977 5.1673 -15.6465
Spine1  -0.0919179 0.246622 -2.56124
Neck  3.97569e-016 0 -2.38542e-015
Head  9.48115 -8.47189 48.0134
R_Clavicle  0.422175 -17.0697 2.14162
R_UpperArm  -1.04735 -14.2868 50.3303
R_Forearm  6.7237 11.293 -9.57266
R_Hand  0.986857 5.97031 -0.989526
L_Clavicle  -0.440643 13.4962 2.71007
L_UpperArm  8.14459 16.4065 36.2075
L_Forearm  20.2127 -2.22074 -2.57666
L_Hand  0.831005 4.50181 9.55829
L_Thigh  -8.38209 5.57622 8.80481
L_Calf  -4.69444 -7.90658 39.3465
L_Foot  -0.324305 2.25099 -4.01533
L_Toe0  0.505156 0.0297285 -6.13614
R_Thigh  7.89286 -0.787249 -26.4518
R_Calf  -4.7239 10.0215 33.2885
R_Foot  1.00342 2.08116 -4.1777
R_Toe0  0.410437 -0.0889551 -0.256079
134
root  20.5316 32.2556 13.8337 -154.292 -2.05534 96.5272
Spine  0.0855778 4.90854 -11.513
Spine1  -0.466066 0.0271318 -3.03327
Neck  3.97569e-016 0 -2.38542e-015
Head  15.0955 -10.7921 45.7593
R_Clavicle  0.427145 -16.8216 2.24339
R_UpperArm  -1.52382 -11.9213 48.8371
R_Forearm  5.77368 12.7706 -10.8759
R_Hand  1.18852 5.2223 2.06677
L_Clavicle  -0.442478 13.6494 2.76506
L_UpperArm  10.1878 13.5216 35.9313
L_Forearm  21.9081 -2.97721 -3.45334
L_Hand  1.0096 4.40008 11.6913
L_Thigh  -2.06268 7.20067 8.10358
L_Calf  -13.6332 -11.7549 45.9991
L_Foot  -0.888387 0.260244 -4.71427
L_Toe0  0.505156 0.0298024 -6.13614
R_Thigh  5.76307 -2.2626 -30.5213
R_Calf  -3.12797 9.49416 31.3184
R_Foot  0.116848 2.6616 7.02072
R_Toe0  1.42283 -0.427655 -10.6458
135
root  21.3836 31.1731 12.8626 -157.778 -1.90246 100.365
Spine  -0.720344 5.96206 -7.84531
Spine1  -1.6547 0.892062 -2.35686
Neck  3.97569e-016 0 -2.38542e-015
Head  21.602 -13.3953 42.507
R_Clavicle  0.44983 -16.2615 2.64691
R_UpperArm  -0.850379 -9.98502 46.5817
R_Forearm  5.14276 13.7885 -11.7854
R_Hand  1.29927 4.66936 4.19591
L_Clavicle  -0.44532 13.5953 2.90715
L_UpperArm  12.1925 11.469 34.6794
L_Forearm  22.1885 -2.19416 -2.54513
L_Hand  1.15691 4.80405 12.8525
L_Thigh  -2.53669 8.96508 7.97858
L_Calf  -11.0337 -11.4751 47.541
L_Foot  -1.39562 -2.10347 -4.75677
L_Toe0  0.505156 0.0300002 -6.13614
R_Thigh  3.24134 -2.90148 -35.6479
R_Calf  -2.778 9.00879 29.5144
R_Foot  -0.421335 3.30776 15.8836
R_Toe0  1.19425 -0.309861 -16.3754
136
root  22.388 30.2001 11.7147 -159.671 -0.158789 102.646
Spine  -1.79651 6.31137 -8.25671
Spine1  -2.80262 3.87629 -0.184114
Neck  3.97569e-016 0 -2.38542e-015
Head  27.4913 -15.7546 40.988
R_Clavicle  0.472317 -16.2397 3.05059
R_UpperArm  1.57697 -8.83469 45.4652
R_Forearm  3.7505 14.1762 -12.134
R_Hand  1.34184 4.57097 4.80554
L_Clavicle  -0.447072 13.5704 2.99023
L_UpperArm  13.0764 11.5291 32.9225
L_Forearm  21.0106 -0.182383 -0.218186
L_Hand  1.25774 5.6169 12.9744
L_Thigh  -5.11793 9.75426 10.6419
L_Calf  -3.43145 -9.74564 42.0158
L_Foot  -0.39818 0.453925 -2.79204
L_Toe0  0.505156 0.030305 -6.13613
R_Thigh  0.91145 -3.06297 -37.8132
R_Calf  -5.68534 7.89381 25.5165
R_Foot  0.768899 6.45004 19.1007
R_Toe0  0.577209 -0.258122 -14.1353
137
root  23.5142 29.4403 10.3372 -161.31 0.607681 103.555
Spine  -2.55899 3.25875 -9.69979
Spine1  -3.35801 8.83191 1.11474
Neck  3.97569e-016 0 -2.38542e-015
Head  31.5125 -17.4723 42.5178
R_Clavicle  0.470559 -17.3884 3.22208
R_UpperArm  5.68402 -8.60343 46.9564
R_Forearm  1.03025 14.755 -12.6582
R_Hand  1.42594 5.23843 4.18323
L_Clavicle  -0.453653 13.7616 3.29261
L_UpperArm  11.5069 13.8336 31.6233
L_Forearm  20.4082 1.48356 1.70768
L_Hand  1.38705 6.75978 13.0155
L_Thigh  -8.76705 7.66335 15.3685
L_Calf  4.18881 -5.45303 28.5363
L_Foot  2.80339 11.2346 0.379113
L_Toe0  0.505156 0.0307001 -6.13613
R_Thigh  -0.110847 -5.26267 -37.1463
R_Calf  -12.1676 5.67334 17.9721
R_Foot  2.8506 10.5524 15.7002
R_Toe0  -0.228119 -0.0208308 -1.92934
